<?xml version="1.0" encoding="UTF-8" standalone="no"?>
<!DOCTYPE svg PUBLIC "-//W3C//DTD SVG 1.1//EN" "http://www.w3.org/Graphics/SVG/1.1/DTD/svg11.dtd">
<svg xmlns="http://www.w3.org/2000/svg" version="1.1" viewBox="0.00 0.00 182.00 237.00">
<g stroke-width="2.00" fill="none" stroke-linecap="butt">
<path stroke="#efc8ad" vector-effect="non-scaling-stroke" d="
  M 144.3299 42.7840
  A 8.90 8.42 58.2 0 0 146.7961 30.7830
  A 8.90 8.42 58.2 0 0 134.9501 27.6560
  A 8.90 8.42 58.2 0 0 132.4839 39.6570
  A 8.90 8.42 58.2 0 0 144.3299 42.7840"
/>
<path stroke="#efc8ad" vector-effect="non-scaling-stroke" d="
  M 129.0519 39.7438
  A 7.59 7.59 0.0 0 0 118.4622 37.9907
  L 117.4539 38.7125
  A 7.59 7.59 0.0 0 0 115.7008 49.3023
  L 117.0281 51.1562
  A 7.59 7.59 0.0 0 0 127.6178 52.9093
  L 128.6261 52.1875
  A 7.59 7.59 0.0 0 0 130.3792 41.5977
  L 129.0519 39.7438"
/>
<path stroke="#96e1ee" vector-effect="non-scaling-stroke" d="
  M 49.45 114.08
  L 50.75 115.94
  A 0.46 0.46 0.0 0 0 51.57 115.82
  L 52.18 113.99
  A 0.87 0.87 0.0 0 1 53.64 113.67
  Q 57.91 118.15 61.59 123.42
  C 62.44 124.63 63.31 124.87 64.70 124.94
  C 67.01 125.05 69.11 122.46 70.26 120.72
  C 78.85 107.71 81.99 91.65 102.00 93.02
  Q 115.32 93.94 125.97 98.80
  Q 138.33 104.45 142.72 107.78
  Q 159.79 120.69 169.05 126.23
  Q 173.48 128.88 180.76 128.83
  Q 181.22 128.83 181.22 128.36
  Q 181.25 93.81 181.06 59.25
  C 181.00 47.31 170.36 38.17 158.96 40.40
  Q 154.74 41.23 146.23 46.58
  Q 90.01 81.92 33.78 117.24
  Q 28.28 120.69 26.47 122.59
  C 20.45 128.90 19.83 139.66 24.78 146.47
  Q 27.13 149.71 34.63 154.42
  Q 53.83 166.49 72.86 178.51
  Q 73.31 178.79 73.71 178.45
  C 81.69 171.73 85.73 161.34 88.70 151.76
  A 3.19 2.96 56.9 0 0 88.82 151.06
  L 89.41 136.40
  Q 89.43 135.85 88.90 136.00
  L 86.63 136.65
  Q 85.93 136.85 85.84 137.57
  L 84.22 149.89
  A 2.32 2.30 -67.2 0 0 85.07 152.00
  L 85.99 152.74
  A 1.23 1.23 0.0 0 1 85.30 154.93
  C 82.72 155.09 81.73 154.17 81.36 151.64
  Q 80.61 146.60 80.31 141.50
  Q 80.14 138.49 76.99 138.97
  C 71.37 139.81 67.16 138.40 61.64 137.56
  C 57.51 136.92 53.34 139.96 50.39 142.37
  C 47.96 144.34 45.47 145.63 43.92 141.85
  C 42.79 139.10 45.41 136.75 46.97 134.80
  A 1.42 1.36 -25.3 0 0 47.28 133.99
  Q 47.60 128.44 52.25 125.53
  Q 52.71 125.25 52.46 124.76
  C 50.69 121.27 47.84 118.49 48.76 114.22
  Q 48.94 113.35 49.45 114.08"
/>
<path stroke="#efc8ad" vector-effect="non-scaling-stroke" d="
  M 105.55 48.51
  L 104.99 47.57
  A 0.80 0.79 -31.1 0 0 103.88 47.30
  L 101.51 48.77
  Q 101.07 49.04 101.34 49.48
  L 109.69 63.00
  A 0.49 0.49 0.0 0 0 110.37 63.16
  L 113.15 61.37
  Q 113.63 61.07 113.31 60.60
  C 110.75 56.75 104.67 49.67 111.23 47.44
  Q 111.73 47.27 111.53 46.79
  L 110.42 44.04
  A 0.53 0.52 -19.6 0 0 109.78 43.74
  Q 106.24 44.77 106.14 48.36
  A 0.32 0.32 0.0 0 1 105.55 48.51"
/>
<path stroke="#efc8ad" vector-effect="non-scaling-stroke" d="
  M 101.68 66.35
  Q 104.83 67.84 106.99 65.02
  A 0.80 0.79 -44.7 0 0 107.00 64.08
  L 105.93 62.61
  Q 105.55 62.09 105.05 62.50
  Q 104.70 62.77 104.29 62.87
  Q 103.76 62.99 103.48 62.53
  C 101.97 60.08 98.54 52.94 95.23 53.29
  Q 89.15 53.94 86.81 60.28
  Q 86.53 61.05 87.27 61.40
  L 89.18 62.32
  Q 89.85 62.64 90.03 61.92
  Q 90.99 58.12 93.97 57.23
  Q 95.82 56.68 96.03 58.85
  Q 96.07 59.32 95.75 59.68
  Q 94.58 60.96 92.45 62.96
  C 87.86 67.28 92.82 73.93 98.11 71.16
  Q 100.87 69.71 101.07 66.70
  A 0.43 0.43 0.0 0 1 101.68 66.35"
/>
<path stroke="#efc8ad" vector-effect="non-scaling-stroke" d="
  M 83.87 79.52
  A 0.38 0.38 0.0 0 0 83.98 79.00
  L 80.67 73.79
  A 0.38 0.38 0.0 0 1 81.13 73.23
  L 88.83 76.30
  A 0.38 0.38 0.0 0 0 89.17 76.27
  L 92.48 74.28
  A 0.38 0.38 0.0 0 0 92.42 73.60
  L 82.90 69.76
  A 0.38 0.38 0.0 0 1 82.66 69.36
  L 83.68 60.50
  A 0.38 0.38 0.0 0 0 83.09 60.14
  L 79.82 62.34
  A 0.38 0.38 0.0 0 0 79.66 62.62
  L 79.12 69.94
  A 0.38 0.38 0.0 0 1 78.41 70.11
  L 72.02 59.57
  A 0.38 0.38 0.0 0 0 71.50 59.44
  L 68.41 61.29
  A 0.38 0.38 0.0 0 0 68.28 61.82
  L 80.42 81.37
  A 0.38 0.38 0.0 0 0 80.96 81.48
  L 83.87 79.52"
/>
<path stroke="#efc8ad" vector-effect="non-scaling-stroke" d="
  M 71.9819 75.3184
  A 7.60 7.60 0.0 0 0 61.4349 73.2492
  L 60.3891 73.9520
  A 7.60 7.60 0.0 0 0 58.3199 84.4989
  L 59.5581 86.3416
  A 7.60 7.60 0.0 0 0 70.1051 88.4108
  L 71.1509 87.7080
  A 7.60 7.60 0.0 0 0 73.2201 77.1611
  L 71.9819 75.3184"
/>
<path stroke="#efc8ad" vector-effect="non-scaling-stroke" d="
  M 53.9688 98.5342
  A 8.89 8.43 57.1 0 0 56.2180 86.4910
  A 8.89 8.43 57.1 0 0 44.3112 83.6058
  A 8.89 8.43 57.1 0 0 42.0620 95.6490
  A 8.89 8.43 57.1 0 0 53.9688 98.5342"
/>
<path stroke="#efc8ad" vector-effect="non-scaling-stroke" d="
  M 33.93 95.42
  C 35.79 90.50 30.95 86.06 26.48 88.78
  Q 22.05 91.47 17.71 94.14
  A 0.44 0.44 0.0 0 0 17.57 94.74
  L 28.92 113.11
  A 0.36 0.36 0.0 0 0 29.42 113.23
  Q 34.25 110.26 38.72 107.20
  C 44.54 103.23 41.07 95.00 34.29 95.88
  Q 33.73 95.95 33.93 95.42"
/>
<path stroke="#efc8ad" vector-effect="non-scaling-stroke" d="
  M 164.75 230.96
  C 173.04 229.80 181.21 222.27 181.21 213.25
  Q 181.21 174.24 181.22 135.21
  Q 181.22 134.64 180.66 134.61
  C 178.31 134.44 176.16 134.78 173.96 134.08
  C 165.28 131.27 159.37 127.34 149.13 121.61
  C 143.99 118.74 133.46 115.01 127.58 118.07
  Q 116.03 124.11 106.49 134.51
  C 98.99 142.68 96.16 154.42 92.66 165.21
  A 7.41 7.35 77.4 0 1 90.72 168.29
  L 77.47 180.79
  A 0.40 0.40 0.0 0 0 77.53 181.42
  Q 112.09 203.11 146.56 224.76
  C 153.46 229.09 157.63 231.96 164.75 230.96"
/>
<path stroke="#efc8ad" vector-effect="non-scaling-stroke" d="
  M 142.3927 39.6793
  A 5.23 4.00 58.5 0 0 143.0706 33.1300
  A 5.23 4.00 58.5 0 0 136.9273 30.7607
  A 5.23 4.00 58.5 0 0 136.2494 37.3100
  A 5.23 4.00 58.5 0 0 142.3927 39.6793"
/>
<path stroke="#efc8ad" vector-effect="non-scaling-stroke" d="
  M 125.7188 49.9716
  A 5.24 4.00 59.0 0 0 126.4487 43.4198
  A 5.24 4.00 59.0 0 0 120.3212 40.9884
  A 5.24 4.00 59.0 0 0 119.5913 47.5402
  A 5.24 4.00 59.0 0 0 125.7188 49.9716"
/>
<path stroke="#efc8ad" vector-effect="non-scaling-stroke" d="
  M 98.86 62.28
  Q 98.30 60.79 97.19 61.93
  L 94.89 64.31
  A 1.86 1.86 0.0 0 0 94.54 66.39
  Q 95.45 68.35 97.18 67.66
  Q 100.38 66.38 98.86 62.28"
/>
<path stroke="#efc8ad" vector-effect="non-scaling-stroke" d="
  M 68.4229 85.3920
  A 5.25 4.01 59.9 0 0 69.2593 78.8389
  A 5.25 4.01 59.9 0 0 63.1571 76.3080
  A 5.25 4.01 59.9 0 0 62.3207 82.8611
  A 5.25 4.01 59.9 0 0 68.4229 85.3920"
/>
<path stroke="#efc8ad" vector-effect="non-scaling-stroke" d="
  M 51.8023 95.6217
  A 5.23 4.01 59.4 0 0 52.5916 89.0787
  A 5.23 4.01 59.4 0 0 46.4777 86.6183
  A 5.23 4.01 59.4 0 0 45.6884 93.1613
  A 5.23 4.01 59.4 0 0 51.8023 95.6217"
/>
<path stroke="#efc8ad" vector-effect="non-scaling-stroke" d="
  M 23.10 95.30
  L 25.55 99.24
  A 0.47 0.47 0.0 0 0 26.20 99.39
  L 29.63 97.25
  A 2.75 2.43 -31.9 0 0 30.68 93.74
  L 30.30 93.13
  A 2.75 2.43 -31.9 0 0 26.68 92.52
  L 23.25 94.65
  A 0.47 0.47 0.0 0 0 23.10 95.30"
/>
<path stroke="#efc8ad" vector-effect="non-scaling-stroke" d="
  M 27.82 102.97
  L 30.70 107.56
  A 0.59 0.59 0.0 0 0 31.51 107.75
  L 35.58 105.20
  A 3.25 2.99 -32.1 0 0 36.74 100.94
  L 36.41 100.41
  A 3.25 2.99 -32.1 0 0 32.07 99.61
  L 28.01 102.16
  A 0.59 0.59 0.0 0 0 27.82 102.97"
/>
</g>
<path fill="#ffffff" d="
  M 0.00 0.00
  L 182.00 0.00
  L 182.00 237.00
  L 0.00 237.00
  L 0.00 0.00
  Z
  M 144.3299 42.7840
  A 8.90 8.42 58.2 0 0 146.7961 30.7830
  A 8.90 8.42 58.2 0 0 134.9501 27.6560
  A 8.90 8.42 58.2 0 0 132.4839 39.6570
  A 8.90 8.42 58.2 0 0 144.3299 42.7840
  Z
  M 129.0519 39.7438
  A 7.59 7.59 0.0 0 0 118.4622 37.9907
  L 117.4539 38.7125
  A 7.59 7.59 0.0 0 0 115.7008 49.3023
  L 117.0281 51.1562
  A 7.59 7.59 0.0 0 0 127.6178 52.9093
  L 128.6261 52.1875
  A 7.59 7.59 0.0 0 0 130.3792 41.5977
  L 129.0519 39.7438
  Z
  M 49.45 114.08
  L 50.75 115.94
  A 0.46 0.46 0.0 0 0 51.57 115.82
  L 52.18 113.99
  A 0.87 0.87 0.0 0 1 53.64 113.67
  Q 57.91 118.15 61.59 123.42
  C 62.44 124.63 63.31 124.87 64.70 124.94
  C 67.01 125.05 69.11 122.46 70.26 120.72
  C 78.85 107.71 81.99 91.65 102.00 93.02
  Q 115.32 93.94 125.97 98.80
  Q 138.33 104.45 142.72 107.78
  Q 159.79 120.69 169.05 126.23
  Q 173.48 128.88 180.76 128.83
  Q 181.22 128.83 181.22 128.36
  Q 181.25 93.81 181.06 59.25
  C 181.00 47.31 170.36 38.17 158.96 40.40
  Q 154.74 41.23 146.23 46.58
  Q 90.01 81.92 33.78 117.24
  Q 28.28 120.69 26.47 122.59
  C 20.45 128.90 19.83 139.66 24.78 146.47
  Q 27.13 149.71 34.63 154.42
  Q 53.83 166.49 72.86 178.51
  Q 73.31 178.79 73.71 178.45
  C 81.69 171.73 85.73 161.34 88.70 151.76
  A 3.19 2.96 56.9 0 0 88.82 151.06
  L 89.41 136.40
  Q 89.43 135.85 88.90 136.00
  L 86.63 136.65
  Q 85.93 136.85 85.84 137.57
  L 84.22 149.89
  A 2.32 2.30 -67.2 0 0 85.07 152.00
  L 85.99 152.74
  A 1.23 1.23 0.0 0 1 85.30 154.93
  C 82.72 155.09 81.73 154.17 81.36 151.64
  Q 80.61 146.60 80.31 141.50
  Q 80.14 138.49 76.99 138.97
  C 71.37 139.81 67.16 138.40 61.64 137.56
  C 57.51 136.92 53.34 139.96 50.39 142.37
  C 47.96 144.34 45.47 145.63 43.92 141.85
  C 42.79 139.10 45.41 136.75 46.97 134.80
  A 1.42 1.36 -25.3 0 0 47.28 133.99
  Q 47.60 128.44 52.25 125.53
  Q 52.71 125.25 52.46 124.76
  C 50.69 121.27 47.84 118.49 48.76 114.22
  Q 48.94 113.35 49.45 114.08
  Z
  M 105.55 48.51
  L 104.99 47.57
  A 0.80 0.79 -31.1 0 0 103.88 47.30
  L 101.51 48.77
  Q 101.07 49.04 101.34 49.48
  L 109.69 63.00
  A 0.49 0.49 0.0 0 0 110.37 63.16
  L 113.15 61.37
  Q 113.63 61.07 113.31 60.60
  C 110.75 56.75 104.67 49.67 111.23 47.44
  Q 111.73 47.27 111.53 46.79
  L 110.42 44.04
  A 0.53 0.52 -19.6 0 0 109.78 43.74
  Q 106.24 44.77 106.14 48.36
  A 0.32 0.32 0.0 0 1 105.55 48.51
  Z
  M 101.68 66.35
  Q 104.83 67.84 106.99 65.02
  A 0.80 0.79 -44.7 0 0 107.00 64.08
  L 105.93 62.61
  Q 105.55 62.09 105.05 62.50
  Q 104.70 62.77 104.29 62.87
  Q 103.76 62.99 103.48 62.53
  C 101.97 60.08 98.54 52.94 95.23 53.29
  Q 89.15 53.94 86.81 60.28
  Q 86.53 61.05 87.27 61.40
  L 89.18 62.32
  Q 89.85 62.64 90.03 61.92
  Q 90.99 58.12 93.97 57.23
  Q 95.82 56.68 96.03 58.85
  Q 96.07 59.32 95.75 59.68
  Q 94.58 60.96 92.45 62.96
  C 87.86 67.28 92.82 73.93 98.11 71.16
  Q 100.87 69.71 101.07 66.70
  A 0.43 0.43 0.0 0 1 101.68 66.35
  Z
  M 83.87 79.52
  A 0.38 0.38 0.0 0 0 83.98 79.00
  L 80.67 73.79
  A 0.38 0.38 0.0 0 1 81.13 73.23
  L 88.83 76.30
  A 0.38 0.38 0.0 0 0 89.17 76.27
  L 92.48 74.28
  A 0.38 0.38 0.0 0 0 92.42 73.60
  L 82.90 69.76
  A 0.38 0.38 0.0 0 1 82.66 69.36
  L 83.68 60.50
  A 0.38 0.38 0.0 0 0 83.09 60.14
  L 79.82 62.34
  A 0.38 0.38 0.0 0 0 79.66 62.62
  L 79.12 69.94
  A 0.38 0.38 0.0 0 1 78.41 70.11
  L 72.02 59.57
  A 0.38 0.38 0.0 0 0 71.50 59.44
  L 68.41 61.29
  A 0.38 0.38 0.0 0 0 68.28 61.82
  L 80.42 81.37
  A 0.38 0.38 0.0 0 0 80.96 81.48
  L 83.87 79.52
  Z
  M 71.9819 75.3184
  A 7.60 7.60 0.0 0 0 61.4349 73.2492
  L 60.3891 73.9520
  A 7.60 7.60 0.0 0 0 58.3199 84.4989
  L 59.5581 86.3416
  A 7.60 7.60 0.0 0 0 70.1051 88.4108
  L 71.1509 87.7080
  A 7.60 7.60 0.0 0 0 73.2201 77.1611
  L 71.9819 75.3184
  Z
  M 53.9688 98.5342
  A 8.89 8.43 57.1 0 0 56.2180 86.4910
  A 8.89 8.43 57.1 0 0 44.3112 83.6058
  A 8.89 8.43 57.1 0 0 42.0620 95.6490
  A 8.89 8.43 57.1 0 0 53.9688 98.5342
  Z
  M 33.93 95.42
  C 35.79 90.50 30.95 86.06 26.48 88.78
  Q 22.05 91.47 17.71 94.14
  A 0.44 0.44 0.0 0 0 17.57 94.74
  L 28.92 113.11
  A 0.36 0.36 0.0 0 0 29.42 113.23
  Q 34.25 110.26 38.72 107.20
  C 44.54 103.23 41.07 95.00 34.29 95.88
  Q 33.73 95.95 33.93 95.42
  Z
  M 164.75 230.96
  C 173.04 229.80 181.21 222.27 181.21 213.25
  Q 181.21 174.24 181.22 135.21
  Q 181.22 134.64 180.66 134.61
  C 178.31 134.44 176.16 134.78 173.96 134.08
  C 165.28 131.27 159.37 127.34 149.13 121.61
  C 143.99 118.74 133.46 115.01 127.58 118.07
  Q 116.03 124.11 106.49 134.51
  C 98.99 142.68 96.16 154.42 92.66 165.21
  A 7.41 7.35 77.4 0 1 90.72 168.29
  L 77.47 180.79
  A 0.40 0.40 0.0 0 0 77.53 181.42
  Q 112.09 203.11 146.56 224.76
  C 153.46 229.09 157.63 231.96 164.75 230.96
  Z"
/>
<path fill="#df915a" d="
  M 144.3299 42.7840
  A 8.90 8.42 58.2 0 1 132.4839 39.6570
  A 8.90 8.42 58.2 0 1 134.9501 27.6560
  A 8.90 8.42 58.2 0 1 146.7961 30.7830
  A 8.90 8.42 58.2 0 1 144.3299 42.7840
  Z
  M 142.3927 39.6793
  A 5.23 4.00 58.5 0 0 143.0706 33.1300
  A 5.23 4.00 58.5 0 0 136.9273 30.7607
  A 5.23 4.00 58.5 0 0 136.2494 37.3100
  A 5.23 4.00 58.5 0 0 142.3927 39.6793
  Z"
/>
<ellipse fill="#ffffff" cx="0.00" cy="0.00" transform="translate(139.66,35.22) rotate(58.5)" rx="5.23" ry="4.00"/>
<path fill="#df915a" d="
  M 130.3792 41.5977
  A 7.59 7.59 0.0 0 1 128.6261 52.1875
  L 127.6178 52.9093
  A 7.59 7.59 0.0 0 1 117.0281 51.1562
  L 115.7008 49.3023
  A 7.59 7.59 0.0 0 1 117.4539 38.7125
  L 118.4622 37.9907
  A 7.59 7.59 0.0 0 1 129.0519 39.7438
  L 130.3792 41.5977
  Z
  M 125.7188 49.9716
  A 5.24 4.00 59.0 0 0 126.4487 43.4198
  A 5.24 4.00 59.0 0 0 120.3212 40.9884
  A 5.24 4.00 59.0 0 0 119.5913 47.5402
  A 5.24 4.00 59.0 0 0 125.7188 49.9716
  Z"
/>
<path fill="#2cc3dd" d="
  M 48.76 114.22
  C 47.84 118.49 50.69 121.27 52.46 124.76
  Q 52.71 125.25 52.25 125.53
  Q 47.60 128.44 47.28 133.99
  A 1.42 1.36 -25.3 0 1 46.97 134.80
  C 45.41 136.75 42.79 139.10 43.92 141.85
  C 45.47 145.63 47.96 144.34 50.39 142.37
  C 53.34 139.96 57.51 136.92 61.64 137.56
  C 67.16 138.40 71.37 139.81 76.99 138.97
  Q 80.14 138.49 80.31 141.50
  Q 80.61 146.60 81.36 151.64
  C 81.73 154.17 82.72 155.09 85.30 154.93
  A 1.23 1.23 0.0 0 0 85.99 152.74
  L 85.07 152.00
  A 2.32 2.30 -67.2 0 1 84.22 149.89
  L 85.84 137.57
  Q 85.93 136.85 86.63 136.65
  L 88.90 136.00
  Q 89.43 135.85 89.41 136.40
  L 88.82 151.06
  A 3.19 2.96 56.9 0 1 88.70 151.76
  C 85.73 161.34 81.69 171.73 73.71 178.45
  Q 73.31 178.79 72.86 178.51
  Q 53.83 166.49 34.63 154.42
  Q 27.13 149.71 24.78 146.47
  C 19.83 139.66 20.45 128.90 26.47 122.59
  Q 28.28 120.69 33.78 117.24
  Q 90.01 81.92 146.23 46.58
  Q 154.74 41.23 158.96 40.40
  C 170.36 38.17 181.00 47.31 181.06 59.25
  Q 181.25 93.81 181.22 128.36
  Q 181.22 128.83 180.76 128.83
  Q 173.48 128.88 169.05 126.23
  Q 159.79 120.69 142.72 107.78
  Q 138.33 104.45 125.97 98.80
  Q 115.32 93.94 102.00 93.02
  C 81.99 91.65 78.85 107.71 70.26 120.72
  C 69.11 122.46 67.01 125.05 64.70 124.94
  C 63.31 124.87 62.44 124.63 61.59 123.42
  Q 57.91 118.15 53.64 113.67
  A 0.87 0.87 0.0 0 0 52.18 113.99
  L 51.57 115.82
  A 0.46 0.46 0.0 0 1 50.75 115.94
  L 49.45 114.08
  Q 48.94 113.35 48.76 114.22
  Z"
/>
<ellipse fill="#ffffff" cx="0.00" cy="0.00" transform="translate(123.02,45.48) rotate(59.0)" rx="5.24" ry="4.00"/>
<path fill="#df915a" d="
  M 106.14 48.36
  Q 106.24 44.77 109.78 43.74
  A 0.53 0.52 -19.6 0 1 110.42 44.04
  L 111.53 46.79
  Q 111.73 47.27 111.23 47.44
  C 104.67 49.67 110.75 56.75 113.31 60.60
  Q 113.63 61.07 113.15 61.37
  L 110.37 63.16
  A 0.49 0.49 0.0 0 1 109.69 63.00
  L 101.34 49.48
  Q 101.07 49.04 101.51 48.77
  L 103.88 47.30
  A 0.80 0.79 -31.1 0 1 104.99 47.57
  L 105.55 48.51
  A 0.32 0.32 0.0 0 0 106.14 48.36
  Z"
/>
<path fill="#df915a" d="
  M 101.68 66.35
  A 0.43 0.43 0.0 0 0 101.07 66.70
  Q 100.87 69.71 98.11 71.16
  C 92.82 73.93 87.86 67.28 92.45 62.96
  Q 94.58 60.96 95.75 59.68
  Q 96.07 59.32 96.03 58.85
  Q 95.82 56.68 93.97 57.23
  Q 90.99 58.12 90.03 61.92
  Q 89.85 62.64 89.18 62.32
  L 87.27 61.40
  Q 86.53 61.05 86.81 60.28
  Q 89.15 53.94 95.23 53.29
  C 98.54 52.94 101.97 60.08 103.48 62.53
  Q 103.76 62.99 104.29 62.87
  Q 104.70 62.77 105.05 62.50
  Q 105.55 62.09 105.93 62.61
  L 107.00 64.08
  A 0.80 0.79 -44.7 0 1 106.99 65.02
  Q 104.83 67.84 101.68 66.35
  Z
  M 98.86 62.28
  Q 98.30 60.79 97.19 61.93
  L 94.89 64.31
  A 1.86 1.86 0.0 0 0 94.54 66.39
  Q 95.45 68.35 97.18 67.66
  Q 100.38 66.38 98.86 62.28
  Z"
/>
<path fill="#df915a" d="
  M 83.87 79.52
  L 80.96 81.48
  A 0.38 0.38 0.0 0 1 80.42 81.37
  L 68.28 61.82
  A 0.38 0.38 0.0 0 1 68.41 61.29
  L 71.50 59.44
  A 0.38 0.38 0.0 0 1 72.02 59.57
  L 78.41 70.11
  A 0.38 0.38 0.0 0 0 79.12 69.94
  L 79.66 62.62
  A 0.38 0.38 0.0 0 1 79.82 62.34
  L 83.09 60.14
  A 0.38 0.38 0.0 0 1 83.68 60.50
  L 82.66 69.36
  A 0.38 0.38 0.0 0 0 82.90 69.76
  L 92.42 73.60
  A 0.38 0.38 0.0 0 1 92.48 74.28
  L 89.17 76.27
  A 0.38 0.38 0.0 0 1 88.83 76.30
  L 81.13 73.23
  A 0.38 0.38 0.0 0 0 80.67 73.79
  L 83.98 79.00
  A 0.38 0.38 0.0 0 1 83.87 79.52
  Z"
/>
<path fill="#ffffff" d="
  M 98.86 62.28
  Q 100.38 66.38 97.18 67.66
  Q 95.45 68.35 94.54 66.39
  A 1.86 1.86 0.0 0 1 94.89 64.31
  L 97.19 61.93
  Q 98.30 60.79 98.86 62.28
  Z"
/>
<path fill="#df915a" d="
  M 73.2201 77.1611
  A 7.60 7.60 0.0 0 1 71.1509 87.7080
  L 70.1051 88.4108
  A 7.60 7.60 0.0 0 1 59.5581 86.3416
  L 58.3199 84.4989
  A 7.60 7.60 0.0 0 1 60.3891 73.9520
  L 61.4349 73.2492
  A 7.60 7.60 0.0 0 1 71.9819 75.3184
  L 73.2201 77.1611
  Z
  M 68.4229 85.3920
  A 5.25 4.01 59.9 0 0 69.2593 78.8389
  A 5.25 4.01 59.9 0 0 63.1571 76.3080
  A 5.25 4.01 59.9 0 0 62.3207 82.8611
  A 5.25 4.01 59.9 0 0 68.4229 85.3920
  Z"
/>
<ellipse fill="#ffffff" cx="0.00" cy="0.00" transform="translate(65.79,80.85) rotate(59.9)" rx="5.25" ry="4.01"/>
<path fill="#df915a" d="
  M 53.9688 98.5342
  A 8.89 8.43 57.1 0 1 42.0620 95.6490
  A 8.89 8.43 57.1 0 1 44.3112 83.6058
  A 8.89 8.43 57.1 0 1 56.2180 86.4910
  A 8.89 8.43 57.1 0 1 53.9688 98.5342
  Z
  M 51.8023 95.6217
  A 5.23 4.01 59.4 0 0 52.5916 89.0787
  A 5.23 4.01 59.4 0 0 46.4777 86.6183
  A 5.23 4.01 59.4 0 0 45.6884 93.1613
  A 5.23 4.01 59.4 0 0 51.8023 95.6217
  Z"
/>
<ellipse fill="#ffffff" cx="0.00" cy="0.00" transform="translate(49.14,91.12) rotate(59.4)" rx="5.23" ry="4.01"/>
<path fill="#df915a" d="
  M 34.29 95.88
  C 41.07 95.00 44.54 103.23 38.72 107.20
  Q 34.25 110.26 29.42 113.23
  A 0.36 0.36 0.0 0 1 28.92 113.11
  L 17.57 94.74
  A 0.44 0.44 0.0 0 1 17.71 94.14
  Q 22.05 91.47 26.48 88.78
  C 30.95 86.06 35.79 90.50 33.93 95.42
  Q 33.73 95.95 34.29 95.88
  Z
  M 23.10 95.30
  L 25.55 99.24
  A 0.47 0.47 0.0 0 0 26.20 99.39
  L 29.63 97.25
  A 2.75 2.43 -31.9 0 0 30.68 93.74
  L 30.30 93.13
  A 2.75 2.43 -31.9 0 0 26.68 92.52
  L 23.25 94.65
  A 0.47 0.47 0.0 0 0 23.10 95.30
  Z
  M 27.82 102.97
  L 30.70 107.56
  A 0.59 0.59 0.0 0 0 31.51 107.75
  L 35.58 105.20
  A 3.25 2.99 -32.1 0 0 36.74 100.94
  L 36.41 100.41
  A 3.25 2.99 -32.1 0 0 32.07 99.61
  L 28.01 102.16
  A 0.59 0.59 0.0 0 0 27.82 102.97
  Z"
/>
<path fill="#ffffff" d="
  M 23.10 95.30
  A 0.47 0.47 0.0 0 1 23.25 94.65
  L 26.68 92.52
  A 2.75 2.43 -31.9 0 1 30.30 93.13
  L 30.68 93.74
  A 2.75 2.43 -31.9 0 1 29.63 97.25
  L 26.20 99.39
  A 0.47 0.47 0.0 0 1 25.55 99.24
  L 23.10 95.30
  Z"
/>
<path fill="#ffffff" d="
  M 27.82 102.97
  A 0.59 0.59 0.0 0 1 28.01 102.16
  L 32.07 99.61
  A 3.25 2.99 -32.1 0 1 36.41 100.41
  L 36.74 100.94
  A 3.25 2.99 -32.1 0 1 35.58 105.20
  L 31.51 107.75
  A 0.59 0.59 0.0 0 1 30.70 107.56
  L 27.82 102.97
  Z"
/>
<path fill="#df915a" d="
  M 181.21 213.25
  C 181.21 222.27 173.04 229.80 164.75 230.96
  C 157.63 231.96 153.46 229.09 146.56 224.76
  Q 112.09 203.11 77.53 181.42
  A 0.40 0.40 0.0 0 1 77.47 180.79
  L 90.72 168.29
  A 7.41 7.35 77.4 0 0 92.66 165.21
  C 96.16 154.42 98.99 142.68 106.49 134.51
  Q 116.03 124.11 127.58 118.07
  C 133.46 115.01 143.99 118.74 149.13 121.61
  C 159.37 127.34 165.28 131.27 173.96 134.08
  C 176.16 134.78 178.31 134.44 180.66 134.61
  Q 181.22 134.64 181.22 135.21
  Q 181.21 174.24 181.21 213.25
  Z"
/>
</svg>
